<svg width="57" height="24" viewBox="0 0 57 24" fill="none" xmlns="http://www.w3.org/2000/svg">
<path d="M4.07069 14.336H9.59069V17H0.710688V0.248H4.07069V14.336ZM17.6303 17.216C16.3503 17.216 15.1983 16.936 14.1743 16.376C13.1503 15.8 12.3423 14.992 11.7503 13.952C11.1743 12.912 10.8863 11.712 10.8863 10.352C10.8863 8.992 11.1823 7.792 11.7743 6.752C12.3823 5.712 13.2063 4.912 14.2463 4.352C15.2863 3.776 16.4463 3.488 17.7263 3.488C19.0063 3.488 20.1663 3.776 21.2063 4.352C22.2463 4.912 23.0623 5.712 23.6543 6.752C24.2623 7.792 24.5663 8.992 24.5663 10.352C24.5663 11.712 24.2543 12.912 23.6303 13.952C23.0223 14.992 22.1903 15.8 21.1343 16.376C20.0943 16.936 18.9263 17.216 17.6303 17.216ZM17.6303 14.288C18.2383 14.288 18.8063 14.144 19.3343 13.856C19.8783 13.552 20.3103 13.104 20.6303 12.512C20.9503 11.92 21.1103 11.2 21.1103 10.352C21.1103 9.088 20.7743 8.12 20.1023 7.448C19.4463 6.76 18.6383 6.416 17.6783 6.416C16.7183 6.416 15.9103 6.76 15.2543 7.448C14.6143 8.12 14.2943 9.088 14.2943 10.352C14.2943 11.616 14.6063 12.592 15.2303 13.28C15.8703 13.952 16.6703 14.288 17.6303 14.288ZM32.239 3.488C33.231 3.488 34.103 3.688 34.855 4.088C35.607 4.472 36.199 4.976 36.631 5.6V3.704H40.015V17.096C40.015 18.328 39.767 19.424 39.271 20.384C38.775 21.36 38.031 22.128 37.039 22.688C36.047 23.264 34.847 23.552 33.439 23.552C31.551 23.552 29.999 23.112 28.783 22.232C27.583 21.352 26.903 20.152 26.743 18.632H30.079C30.255 19.24 30.631 19.72 31.207 20.072C31.799 20.44 32.511 20.624 33.343 20.624C34.319 20.624 35.111 20.328 35.719 19.736C36.327 19.16 36.631 18.28 36.631 17.096V15.032C36.199 15.656 35.599 16.176 34.831 16.592C34.079 17.008 33.215 17.216 32.239 17.216C31.119 17.216 30.095 16.928 29.167 16.352C28.239 15.776 27.503 14.968 26.959 13.928C26.431 12.872 26.167 11.664 26.167 10.304C26.167 8.96 26.431 7.768 26.959 6.728C27.503 5.688 28.231 4.888 29.143 4.328C30.071 3.768 31.103 3.488 32.239 3.488ZM36.631 10.352C36.631 9.536 36.471 8.84 36.151 8.264C35.831 7.672 35.399 7.224 34.855 6.92C34.311 6.6 33.727 6.44 33.103 6.44C32.479 6.44 31.903 6.592 31.375 6.896C30.847 7.2 30.415 7.648 30.079 8.24C29.759 8.816 29.599 9.504 29.599 10.304C29.599 11.104 29.759 11.808 30.079 12.416C30.415 13.008 30.847 13.464 31.375 13.784C31.919 14.104 32.495 14.264 33.103 14.264C33.727 14.264 34.311 14.112 34.855 13.808C35.399 13.488 35.831 13.04 36.151 12.464C36.471 11.872 36.631 11.168 36.631 10.352ZM49.2006 17.216C47.9206 17.216 46.7686 16.936 45.7446 16.376C44.7206 15.8 43.9126 14.992 43.3206 13.952C42.7446 12.912 42.4566 11.712 42.4566 10.352C42.4566 8.992 42.7526 7.792 43.3446 6.752C43.9526 5.712 44.7766 4.912 45.8166 4.352C46.8566 3.776 48.0166 3.488 49.2966 3.488C50.5766 3.488 51.7366 3.776 52.7766 4.352C53.8166 4.912 54.6326 5.712 55.2246 6.752C55.8326 7.792 56.1366 8.992 56.1366 10.352C56.1366 11.712 55.8246 12.912 55.2006 13.952C54.5926 14.992 53.7606 15.8 52.7046 16.376C51.6646 16.936 50.4966 17.216 49.2006 17.216ZM49.2006 14.288C49.8086 14.288 50.3766 14.144 50.9046 13.856C51.4486 13.552 51.8806 13.104 52.2006 12.512C52.5206 11.92 52.6806 11.2 52.6806 10.352C52.6806 9.088 52.3446 8.12 51.6726 7.448C51.0166 6.76 50.2086 6.416 49.2486 6.416C48.2886 6.416 47.4806 6.76 46.8246 7.448C46.1846 8.12 45.8646 9.088 45.8646 10.352C45.8646 11.616 46.1766 12.592 46.8006 13.28C47.4406 13.952 48.2406 14.288 49.2006 14.288Z" fill="black"/>
</svg>
