<svg width="20" height="20" viewBox="0 0 20 20" fill="none" xmlns="http://www.w3.org/2000/svg">
<path d="M12.0773 3C12.0773 2.46957 11.8586 1.96086 11.4692 1.58579C11.0798 1.21071 10.5517 1 10.001 1C9.45037 1 8.92225 1.21071 8.53287 1.58579C8.14348 1.96086 7.92473 2.46957 7.92473 3M17.538 7.696L18.9759 16.696C19.0214 16.9808 19.0024 17.2718 18.9203 17.5489C18.8381 17.8261 18.6948 18.0828 18.5001 18.3016C18.3054 18.5204 18.0639 18.6961 17.7921 18.8167C17.5203 18.9372 17.2247 18.9997 16.9255 19H3.07656C2.77719 19 2.48135 18.9377 2.20933 18.8173C1.9373 18.6969 1.69553 18.5212 1.50058 18.3024C1.30563 18.0836 1.16212 17.8267 1.07988 17.5494C0.997641 17.2721 0.978622 16.981 1.02413 16.696L2.46197 7.696C2.53739 7.22359 2.78596 6.79282 3.16264 6.4817C3.53933 6.17059 4.01924 5.9997 4.51544 6H15.4866C15.9827 5.99994 16.4623 6.17094 16.8388 6.48203C17.2153 6.79312 17.4637 7.22376 17.5391 7.696H17.538Z" stroke="#101010" stroke-width="1.85" stroke-linecap="round" stroke-linejoin="round"/>
</svg>
