<svg width="38" height="38" viewBox="0 0 38 38" fill="none" xmlns="http://www.w3.org/2000/svg">
<path d="M38 19C38 29.4934 29.7173 38 19.5 38C9.28273 38 0 29.4934 0 19C0 8.50659 9.28273 0 19.5 0C29.7173 0 38 8.50659 38 19Z" fill="#979797"/>
<path d="M24.25 15.625C24.9058 15.625 25.4375 15.1213 25.4375 14.5C25.4375 13.8787 24.9058 13.375 24.25 13.375C23.5942 13.375 23.0625 13.8787 23.0625 14.5C23.0625 15.1213 23.5942 15.625 24.25 15.625Z" fill="white"/>
<path d="M19.5 14.5C18.5605 14.5 17.6422 14.7639 16.861 15.2584C16.0799 15.7529 15.4711 16.4557 15.1116 17.2779C14.7521 18.1002 14.658 19.005 14.8413 19.8779C15.0246 20.7508 15.4769 21.5526 16.1412 22.182C16.8055 22.8113 17.6519 23.2399 18.5733 23.4135C19.4947 23.5872 20.4498 23.4981 21.3177 23.1575C22.1857 22.8169 22.9275 22.2401 23.4495 21.5001C23.9714 20.76 24.25 19.89 24.25 19C24.25 17.8065 23.7496 16.6619 22.8588 15.818C21.968 14.9741 20.7598 14.5 19.5 14.5ZM19.5 21.9211C18.8902 21.9211 18.294 21.7498 17.7869 21.4288C17.2799 21.1079 16.8847 20.6516 16.6513 20.1179C16.4179 19.5841 16.3569 18.9968 16.4758 18.4301C16.5948 17.8635 16.8885 17.343 17.3197 16.9344C17.7509 16.5259 18.3003 16.2477 18.8985 16.135C19.4966 16.0223 20.1166 16.0801 20.68 16.3012C21.2434 16.5223 21.725 16.8967 22.0638 17.3771C22.4026 17.8575 22.5834 18.4223 22.5834 19C22.5834 19.7747 22.2586 20.5177 21.6803 21.0655C21.102 21.6134 20.3178 21.9211 19.5 21.9211Z" fill="white"/>
<path d="M19.5 11.6215C22.0365 11.6215 22.3373 11.6305 23.3388 11.674C23.9411 11.6808 24.5377 11.7855 25.1026 11.9838C25.5124 12.1335 25.8846 12.3629 26.1952 12.6572C26.5058 12.9514 26.748 13.304 26.906 13.6923C27.1153 14.2274 27.2258 14.7926 27.233 15.3632C27.2789 16.312 27.2884 16.597 27.2884 19.0007C27.2884 21.4045 27.2789 21.688 27.233 22.6368C27.2258 23.2074 27.1153 23.7726 26.906 24.3078C26.748 24.696 26.5058 25.0486 26.1952 25.3428C25.8846 25.6371 25.5124 25.8665 25.1026 26.0163C24.5377 26.2145 23.9411 26.3192 23.3388 26.326C22.3373 26.3695 22.0365 26.3785 19.5 26.3785C16.9635 26.3785 16.6627 26.3695 15.6612 26.326C15.0589 26.3192 14.4623 26.2145 13.8974 26.0163C13.4876 25.8665 13.1154 25.6371 12.8048 25.3428C12.4942 25.0486 12.252 24.696 12.094 24.3078C11.8847 23.7726 11.7742 23.2074 11.767 22.6368C11.7211 21.688 11.7116 21.403 11.7116 19C11.7116 16.597 11.7211 16.312 11.767 15.3632C11.7742 14.7926 11.8847 14.2274 12.094 13.6923C12.252 13.304 12.4942 12.9514 12.8048 12.6572C13.1154 12.3629 13.4876 12.1335 13.8974 11.9838C14.4623 11.7855 15.0589 11.6808 15.6612 11.674C16.6627 11.6305 16.9635 11.6215 19.5 11.6215ZM19.5 10C16.92 10 16.5962 10.0105 15.5828 10.054C14.7949 10.0691 14.0155 10.2106 13.2775 10.4725C12.6463 10.7037 12.0731 11.0573 11.5946 11.5107C11.1161 11.964 10.7428 12.507 10.4987 13.105C10.2222 13.8044 10.0728 14.5431 10.057 15.2898C10.0111 16.2498 10 16.555 10 19C10 21.445 10.0111 21.751 10.057 22.711C10.0729 23.4574 10.2223 24.1959 10.4987 24.895C10.7428 25.493 11.1161 26.036 11.5946 26.4893C12.0731 26.9427 12.6463 27.2963 13.2775 27.5275C14.0157 27.7895 14.7955 27.931 15.5836 27.946C16.597 27.9895 16.92 28 19.5 28C22.08 28 22.4038 27.9895 23.4172 27.946C24.2053 27.931 24.9851 27.7895 25.7233 27.5275C26.3545 27.2963 26.9277 26.9427 27.4062 26.4893C27.8847 26.036 28.258 25.493 28.502 24.895C28.7783 24.1956 28.9274 23.4569 28.943 22.7103C28.9889 21.7503 29 21.445 29 19C29 16.555 28.9889 16.249 28.943 15.289C28.9271 14.5426 28.7777 13.8041 28.5013 13.105C28.2572 12.507 27.8839 11.964 27.4054 11.5107C26.9269 11.0573 26.3537 10.7037 25.7225 10.4725C24.9842 10.2107 24.2045 10.0695 23.4164 10.0548C22.403 10.0098 22.0808 10 19.5 10Z" fill="white"/>
</svg>
