<svg width="83" height="36" viewBox="0 0 83 36" fill="none" xmlns="http://www.w3.org/2000/svg">
<path d="M4.048 23.336H12.832V26H0.772V0.907999H4.048V23.336ZM24.9151 26.324C23.0671 26.324 21.3871 25.904 19.8751 25.064C18.3871 24.224 17.2111 23.036 16.3471 21.5C15.5071 19.94 15.0871 18.14 15.0871 16.1C15.0871 14.084 15.5191 12.308 16.3831 10.772C17.2711 9.212 18.4711 8.024 19.9831 7.208C21.4951 6.368 23.1871 5.948 25.0591 5.948C26.9311 5.948 28.6231 6.368 30.1351 7.208C31.6471 8.024 32.8351 9.2 33.6991 10.736C34.5871 12.272 35.0311 14.06 35.0311 16.1C35.0311 18.14 34.5751 19.94 33.6631 21.5C32.7751 23.036 31.5631 24.224 30.0271 25.064C28.4911 25.904 26.7871 26.324 24.9151 26.324ZM24.9151 23.444C26.0911 23.444 27.1951 23.168 28.2271 22.616C29.2591 22.064 30.0871 21.236 30.7111 20.132C31.3591 19.028 31.6831 17.684 31.6831 16.1C31.6831 14.516 31.3711 13.172 30.7471 12.068C30.1231 10.964 29.3071 10.148 28.2991 9.62C27.2911 9.068 26.1991 8.792 25.0231 8.792C23.8231 8.792 22.7191 9.068 21.7111 9.62C20.7271 10.148 19.9351 10.964 19.3351 12.068C18.7351 13.172 18.4351 14.516 18.4351 16.1C18.4351 17.708 18.7231 19.064 19.2991 20.168C19.8991 21.272 20.6911 22.1 21.6751 22.652C22.6591 23.18 23.7391 23.444 24.9151 23.444ZM47.4744 5.948C49.1784 5.948 50.6664 6.32 51.9384 7.064C53.2344 7.808 54.1944 8.744 54.8184 9.872V6.272H58.1304V26.432C58.1304 28.232 57.7464 29.828 56.9784 31.22C56.2104 32.636 55.1064 33.74 53.6664 34.532C52.2504 35.324 50.5944 35.72 48.6984 35.72C46.1064 35.72 43.9464 35.108 42.2184 33.884C40.4904 32.66 39.4704 30.992 39.1584 28.88H42.3984C42.7584 30.08 43.5024 31.04 44.6304 31.76C45.7584 32.504 47.1144 32.876 48.6984 32.876C50.4984 32.876 51.9624 32.312 53.0904 31.184C54.2424 30.056 54.8184 28.472 54.8184 26.432V22.292C54.1704 23.444 53.2104 24.404 51.9384 25.172C50.6664 25.94 49.1784 26.324 47.4744 26.324C45.7224 26.324 44.1264 25.892 42.6864 25.028C41.2704 24.164 40.1544 22.952 39.3384 21.392C38.5224 19.832 38.1144 18.056 38.1144 16.064C38.1144 14.048 38.5224 12.284 39.3384 10.772C40.1544 9.236 41.2704 8.048 42.6864 7.208C44.1264 6.368 45.7224 5.948 47.4744 5.948ZM54.8184 16.1C54.8184 14.612 54.5184 13.316 53.9184 12.212C53.3184 11.108 52.5024 10.268 51.4704 9.692C50.4624 9.092 49.3464 8.792 48.1224 8.792C46.8984 8.792 45.7824 9.08 44.7744 9.656C43.7664 10.232 42.9624 11.072 42.3624 12.176C41.7624 13.28 41.4624 14.576 41.4624 16.064C41.4624 17.576 41.7624 18.896 42.3624 20.024C42.9624 21.128 43.7664 21.98 44.7744 22.58C45.7824 23.156 46.8984 23.444 48.1224 23.444C49.3464 23.444 50.4624 23.156 51.4704 22.58C52.5024 21.98 53.3184 21.128 53.9184 20.024C54.5184 18.896 54.8184 17.588 54.8184 16.1ZM72.2705 26.324C70.4225 26.324 68.7425 25.904 67.2305 25.064C65.7425 24.224 64.5665 23.036 63.7025 21.5C62.8625 19.94 62.4425 18.14 62.4425 16.1C62.4425 14.084 62.8745 12.308 63.7385 10.772C64.6265 9.212 65.8265 8.024 67.3385 7.208C68.8505 6.368 70.5425 5.948 72.4145 5.948C74.2865 5.948 75.9785 6.368 77.4905 7.208C79.0025 8.024 80.1905 9.2 81.0545 10.736C81.9425 12.272 82.3865 14.06 82.3865 16.1C82.3865 18.14 81.9305 19.94 81.0185 21.5C80.1305 23.036 78.9185 24.224 77.3825 25.064C75.8465 25.904 74.1425 26.324 72.2705 26.324ZM72.2705 23.444C73.4465 23.444 74.5505 23.168 75.5825 22.616C76.6145 22.064 77.4425 21.236 78.0665 20.132C78.7145 19.028 79.0385 17.684 79.0385 16.1C79.0385 14.516 78.7265 13.172 78.1025 12.068C77.4785 10.964 76.6625 10.148 75.6545 9.62C74.6465 9.068 73.5545 8.792 72.3785 8.792C71.1785 8.792 70.0745 9.068 69.0665 9.62C68.0825 10.148 67.2905 10.964 66.6905 12.068C66.0905 13.172 65.7905 14.516 65.7905 16.1C65.7905 17.708 66.0785 19.064 66.6545 20.168C67.2545 21.272 68.0465 22.1 69.0305 22.652C70.0145 23.18 71.0945 23.444 72.2705 23.444Z" fill="black"/>
</svg>
