<svg width="48" height="48" viewBox="0 0 48 48" fill="none" xmlns="http://www.w3.org/2000/svg">
<g clip-path="url(#clip0_1_241)">
<rect width="48" height="48" rx="24" fill="#6DB77C"/>
<path d="M50.6507 42.7945C52.3518 39.7864 52.7637 37.2536 51.5497 34.0177C50.3457 30.8037 48.7158 28.964 43.8798 27.4213C36.8515 25.1777 38.2695 25.0786 34.083 19.3952C29.8965 13.7137 27.2052 9.97485 21.8206 9.97485C17.85 9.97485 15.1092 14.7692 13.5427 17.8169C13.1506 18.5793 12.806 19.3655 12.4555 20.1497C11.9149 21.3537 11.4515 23.0429 10.3048 23.8489C10.0216 24.0489 9.37011 24.4469 9.07701 24.5895C7.59967 25.3143 5.91834 25.3202 4.3301 25.6212C3.4528 25.7876 2.5755 26.0173 1.72592 26.2926C0.104012 26.8154 -1.46641 27.5659 -2.79127 28.6511C-6.15788 31.4057 -7.03716 35.0376 -6.29254 39.1329" fill="#384EDA"/>
<path d="M31.1304 24.237C31.1304 24.237 31.5304 20.7061 28.9837 20.7061C26.8053 20.7061 25.4883 22.6845 23.4505 22.9894C22.5396 23.1241 21.6266 22.829 20.7375 22.5954C19.874 22.3676 18.9967 22.1953 18.1115 22.0785C17.7689 22.033 17.4184 21.9973 17.0817 22.0706C16.0717 22.2924 15.9787 23.1875 16.2421 24.039C16.551 25.0391 17.0916 25.9639 18.0184 26.5243C18.1353 26.5956 18.2759 26.7164 18.2125 26.8372C18.1887 26.8827 18.1392 26.9085 18.0917 26.9342C16.9966 27.5006 15.844 27.9481 14.8598 28.7006C14.0934 29.2848 13.4339 30.0354 13.0972 30.9305C12.212 33.2811 12.8457 36.9664 14.8538 38.6338C16.7094 40.1745 19.3532 39.7765 21.5672 39.3943C23.3634 39.0834 25.1794 38.5091 26.8548 37.8021C27.9222 37.3506 28.95 36.6912 29.5382 35.7089C30.061 34.8376 30.1937 33.7821 30.0986 32.7741C29.958 31.2592 29.4887 29.7641 28.8807 28.3699C28.7896 28.16 28.6926 27.9442 28.7025 27.7164C28.7203 27.3362 29.0332 27.0332 29.356 26.8233C30.3699 26.1599 30.9601 25.4708 31.1304 24.243V24.237Z" fill="#E7C56C"/>
<path d="M25.0683 28.6531C25.1534 27.9937 25.2247 26.6134 24.183 26.7936C23.8919 26.8431 23.6365 27.0094 23.379 27.154C23.3137 27.1916 23.2443 27.2273 23.1691 27.2194C23.1216 27.2134 23.078 27.1897 23.0364 27.1659C22.8423 27.053 22.6661 26.9144 22.47 26.8035C22.276 26.6926 22.0561 26.6094 21.8324 26.6213C21.0006 26.6649 20.8917 28.0273 20.8857 28.6511" stroke="#261F1D" stroke-width="0.5" stroke-miterlimit="10"/>
<path d="M24.7267 28.1449C24.8009 28.0706 24.69 27.8393 24.4788 27.6282C24.2677 27.417 24.0364 27.3061 23.9621 27.3803C23.8879 27.4546 23.9989 27.6859 24.21 27.897C24.4211 28.1081 24.6525 28.2191 24.7267 28.1449Z" fill="#261F1D"/>
<path d="M21.9562 27.8967C22.1673 27.6856 22.2783 27.4543 22.2041 27.38C22.1298 27.3058 21.8985 27.4168 21.6873 27.6279C21.4762 27.839 21.3652 28.0703 21.4395 28.1446C21.5137 28.2188 21.7451 28.1079 21.9562 27.8967Z" fill="#261F1D"/>
<path d="M26.7399 25.4926C27.1938 25.4926 27.5618 25.1246 27.5618 24.6707C27.5618 24.2169 27.1938 23.8489 26.7399 23.8489C26.286 23.8489 25.9181 24.2169 25.9181 24.6707C25.9181 25.1246 26.286 25.4926 26.7399 25.4926Z" fill="#261F1D"/>
<path d="M19.3867 25.4925C19.8406 25.4925 20.2086 25.1246 20.2086 24.6707C20.2086 24.2168 19.8406 23.8489 19.3867 23.8489C18.9328 23.8489 18.5649 24.2168 18.5649 24.6707C18.5649 25.1246 18.9328 25.4925 19.3867 25.4925Z" fill="#261F1D"/>
<path d="M32.3086 23.0904C32.7318 23.0904 33.075 22.7473 33.075 22.324C33.075 21.9008 32.7318 21.5576 32.3086 21.5576C31.8853 21.5576 31.5422 21.9008 31.5422 22.324C31.5422 22.7473 31.8853 23.0904 32.3086 23.0904Z" fill="#E7C56C"/>
<path d="M14.9666 23.0904C15.3899 23.0904 15.733 22.7473 15.733 22.324C15.733 21.9008 15.3899 21.5576 14.9666 21.5576C14.5433 21.5576 14.2002 21.9008 14.2002 22.324C14.2002 22.7473 14.5433 23.0904 14.9666 23.0904Z" fill="#E7C56C"/>
<path d="M28.0304 28.7349C28.1222 28.1073 27.6877 27.524 27.0601 27.4323C26.4324 27.3405 25.8491 27.7749 25.7573 28.4025C25.6655 29.0302 26.1 29.6134 26.7276 29.7052C27.3553 29.797 27.9386 29.3626 28.0304 28.7349Z" fill="#CF531C"/>
<path d="M20.24 28.2849C20.3318 27.6573 19.8974 27.074 19.2697 26.9822C18.642 26.8905 18.0588 27.3249 17.967 27.9525C17.8752 28.5802 18.3096 29.1634 18.9373 29.2552C19.565 29.347 20.1482 28.9126 20.24 28.2849Z" fill="#CF531C"/>
<path d="M19.7744 35.6773C19.7744 35.6773 25.4442 35.9664 26.7393 32.3503" stroke="black" stroke-width="2" stroke-linecap="round" stroke-linejoin="round"/>
<path d="M26.8998 27.6906C28.5065 27.6906 29.809 26.4892 29.809 25.0073C29.809 23.5253 28.5065 22.324 26.8998 22.324C25.2931 22.324 23.9907 23.5253 23.9907 25.0073C23.9907 26.4892 25.2931 27.6906 26.8998 27.6906Z" fill="white"/>
<path d="M19.626 27.6906C21.2327 27.6906 22.5351 26.4892 22.5351 25.0073C22.5351 23.5253 21.2327 22.324 19.626 22.324C18.0193 22.324 16.7169 23.5253 16.7169 25.0073C16.7169 26.4892 18.0193 27.6906 19.626 27.6906Z" fill="white"/>
<path d="M19.6695 22.8606L17.6615 26.1618L17.3406 26.6846C16.9624 26.2291 16.7148 25.637 16.7148 25.0073C16.7148 23.532 18.0239 22.324 19.624 22.324C19.7408 22.324 19.8715 22.3378 19.9884 22.3517L19.6676 22.8626L19.6695 22.8606ZM21.2558 23.4785L21.5469 22.9953C21.4162 22.8884 21.2697 22.7814 21.1112 22.7002L20.8201 23.1696L18.5506 26.9143L18.2595 27.3837C18.4199 27.4648 18.5803 27.5322 18.7685 27.5718L19.0596 27.0886L21.2558 23.4785ZM27.2642 22.3517C27.1474 22.3378 27.0167 22.324 26.8998 22.324C25.8958 22.324 25.0224 22.7933 24.4996 23.5042C24.1214 23.3438 23.6996 23.2626 23.2639 23.2626C22.8282 23.2626 22.4064 23.3438 22.0281 23.5042C21.9549 23.3973 21.8539 23.2904 21.7667 23.1953L21.4618 23.6924L19.3665 27.1421L19.0616 27.6391C19.2497 27.6668 19.4398 27.6926 19.628 27.6926C21.2281 27.6926 22.5371 26.4846 22.5371 25.0093C22.5371 24.6469 22.4638 24.2983 22.3193 23.9755C22.6104 23.8686 22.9312 23.8013 23.2639 23.8013C23.5966 23.8013 23.9333 23.8686 24.2085 23.9755C24.064 24.2983 23.9907 24.6469 23.9907 25.0093C23.9907 25.641 24.2382 26.2311 24.6303 26.6866L24.9512 26.1638L26.9434 22.8626L27.2642 22.3517ZM28.5297 23.4785L28.8208 22.9953C28.6901 22.8884 28.5435 22.7814 28.3851 22.7002L28.094 23.1696L25.8245 26.9143L25.5334 27.3837C25.6938 27.4648 25.8542 27.5322 26.0423 27.5718L26.3334 27.0886L28.5297 23.4785ZM29.0386 23.1973L28.7336 23.6943L26.6384 27.144L26.3334 27.6411C26.5216 27.6688 26.7117 27.6946 26.8998 27.6946C28.5 27.6946 29.809 26.4866 29.809 25.0112C29.809 24.3142 29.5179 23.6686 29.0386 23.1993V23.1973Z" fill="black"/>
<path d="M12.6572 13.0483C12.6572 13.0483 13.2058 13.3454 13.9959 11.2977C15.4317 7.58269 19.0201 5.13504 23.0046 5.18256C23.0779 5.18256 23.1531 5.18455 23.2264 5.18653C24.0878 5.20831 24.9414 5.32911 25.7791 5.52714C26.4425 5.68358 27.3238 5.91726 28.2684 6.23015C31.3973 7.26783 33.8015 9.80856 34.6907 12.983C35.0788 14.3692 35.5502 15.801 35.8987 16.0683C35.8987 16.0683 38.1722 20.3972 39.7485 21.7221C39.9921 21.926 39.905 22.2746 39.5841 22.3617C38.1622 22.7558 36.2354 23.8113 32.3043 23.0924C29.4467 22.5677 26.3573 20.1002 23.6779 19.817C21.3312 19.5695 18.7765 21.3062 14.9643 21.2052C12.1819 21.1319 10.9878 20.1418 8.3242 18.5219C8.02319 18.3377 8.00338 17.9595 8.2945 17.7674C9.60549 16.8961 12.677 14.6781 12.6552 13.0464L12.6572 13.0483Z" fill="#FFE000"/>
<path d="M12.7151 13.682C14.3469 14.4761 22.3535 17.9238 36.0219 16.5752C36.3883 16.5396 36.6953 16.2564 36.6814 15.9138C36.6675 15.5474 36.2814 15.1811 34.6753 15.3197C34.4238 15.3336 24.4745 16.3336 14.6777 12.7928C14.2539 12.6403 13.8162 12.4997 13.3587 12.4839C12.8379 12.4661 12.2874 12.5631 12.2794 13.0404C12.2735 13.3117 12.4577 13.5552 12.7151 13.682Z" fill="#FF3000"/>
<path d="M-9.46154 65.8906L0.901667 38.9644L39.889 40.8912L28.0444 71.9642L-11.335 66.1282L-9.46154 65.8906Z" fill="#384EDA"/>
<path d="M-27.0387 43.2044C-27.0387 43.2044 -20.1648 47.5789 -13.7089 44.5094C-7.2529 41.4379 -8.61539 38.6497 -6.00528 33.1702L8.0909 38.4219C8.0909 38.4219 0.628918 59.9677 -19.745 58.7102C-19.745 58.7102 -28.1615 52.8564 -31.0786 49.5374C-33.9956 46.2184 -27.0367 43.2064 -27.0367 43.2064L-27.0387 43.2044Z" fill="#384EDA"/>
<path d="M7.366 39.9863C7.366 39.9863 0.854588 59.0171 -19.7471 58.5141" stroke="#213183" stroke-miterlimit="10"/>
<path d="M1.09766 61.4824C3.47211 49.1431 11.1044 40.2397 18.1426 41.5942C25.1808 42.9487 28.9633 54.0503 26.5888 66.3876" fill="#687EE8"/>
<path d="M50.6507 42.7945C50.6507 42.7945 38.6557 67.9325 30.3798 65.5898C30.2352 65.5482 30.0906 65.5126 29.9421 65.4967C27.9716 65.271 13.0397 63.2827 9.98604 54.7298C9.66522 53.8307 8.68098 53.1416 9.42559 52.702C9.45332 52.6861 9.4751 52.6426 9.4949 52.5891C9.57214 52.3812 9.75235 52.2287 9.96623 52.1752C10.0237 52.2782 10.0494 52.094 9.96623 52.1752C9.82761 51.9336 11.0119 51.7059 11.1327 51.6801C11.4297 51.4999 11.7585 51.3791 12.1011 51.3217C12.3763 51.2761 12.6674 51.2365 12.7744 51.2464L13.9309 51.294C14.1844 51.3039 14.4379 51.3276 14.6894 51.3692C14.9864 51.4187 15.1627 51.4722 15.4419 51.5989C15.5469 51.6465 15.6499 51.7039 15.7469 51.7653L16.3073 52.1158C16.9807 52.4861 16.7311 52.6327 17.0599 52.8683C17.1351 52.9218 17.5233 53.1594 17.6342 53.1713C19.5769 53.3872 23.702 54.0981 27.7637 56.0546C28.7677 56.5398 29.952 55.8863 30.0985 54.7813C30.6431 50.6405 31.9304 42.4499 33.8177 40.4518C36.3723 37.7487 50.6487 42.7925 50.6487 42.7925L50.6507 42.7945Z" fill="#384EDA"/>
<path d="M50.0051 43.8262C47.7693 48.3334 38.325 66.57 31.0551 65.7185C31.0551 65.7185 13.923 64.558 10.1564 55.1417C10.1564 55.1417 9.84152 54.0307 9.54644 53.9238C9.25137 53.8168 8.80183 52.6683 9.96628 52.1752C9.96628 52.1752 10.1802 51.7276 11.1327 51.6801C11.1327 51.6801 12.1843 51.2246 13.0517 51.2583C13.0517 51.2583 15.2202 51.2682 15.6143 51.6821C15.6143 51.6821 16.4777 52.0247 16.8837 52.5395C17.0758 52.7831 17.3055 52.997 17.5808 53.1435C17.6164 53.1633 17.656 53.1752 17.6976 53.1772C18.2679 53.2247 22.7693 53.6683 27.5261 55.9298C28.6569 56.4685 29.9877 55.7635 30.1639 54.5218C30.7105 50.688 31.8512 43.7708 33.3286 40.7825" stroke="#213183" stroke-miterlimit="10"/>
</g>
<defs>
<clipPath id="clip0_1_241">
<rect width="48" height="48" rx="24" fill="white"/>
</clipPath>
</defs>
</svg>
